<?xml version="1.0" encoding="utf-8"?>
<!-- Generator: Adobe Illustrator 23.0.1, SVG Export Plug-In . SVG Version: 6.00 Build 0)  -->
<svg version="1.1" xmlns="http://www.w3.org/2000/svg" xmlns:xlink="http://www.w3.org/1999/xlink" x="0px" y="0px"
	 viewBox="0 0 1366 768" style="enable-background:new 0 0 1366 768;" xml:space="preserve">
<style type="text/css">
	.st0{clip-path:url(#SVGID_2_);}
	.st1{fill:#FFFFFF;}
	.st2{fill:#457276;}
	.st3{fill:url(#SVGID_3_);}
	.st4{fill:url(#SVGID_4_);}
	.st5{fill:url(#SVGID_5_);}
	.st6{opacity:0.6;fill:#FFFFFF;}
</style>
<g id="Layer_1">
	<g>
		<g>
			<defs>
				<rect id="SVGID_1_" width="1366" height="768"/>
			</defs>
			<clipPath id="SVGID_2_">
				<use xlink:href="#SVGID_1_"  style="overflow:visible;"/>
			</clipPath>
			<g class="st0">
			</g>
		</g>
		<path class="st1" d="M1365,1v766H1V1H1365 M1366,0H0v768h1366V0L1366,0z"/>
	</g>
	<polygon class="st2" points="0,533.77 54,507 65,507 77,499 83,489 95,484 198,461 213,466 223,461 227,447 235,436 308,384 
		317,371 341,364 450,305 468,338 494,331 503,317 683,196 796,310 805,331 819,333 830,349 871,355 967,418 981,438 1004,436 
		1024,444 1042,463 1100,541 1132,553 1171,557 1190,563 1195,572 1305,603 1366,623.64 1366,768 0,768 	"/>
	<linearGradient id="SVGID_3_" gradientUnits="userSpaceOnUse" x1="776" y1="523.5" x2="1007" y2="523.5">
		<stop  offset="0" style="stop-color:#4D787C"/>
		<stop  offset="0.4072" style="stop-color:#4F797D"/>
		<stop  offset="0.5538" style="stop-color:#567F82"/>
		<stop  offset="0.6584" style="stop-color:#61888B"/>
		<stop  offset="0.743" style="stop-color:#729498"/>
		<stop  offset="0.8154" style="stop-color:#88A5A8"/>
		<stop  offset="0.8795" style="stop-color:#A4BABC"/>
		<stop  offset="0.9375" style="stop-color:#C4D3D4"/>
		<stop  offset="0.9891" style="stop-color:#E8EEEF"/>
		<stop  offset="1" style="stop-color:#F1F5F5"/>
	</linearGradient>
	<polygon class="st3" points="1007,551 987,543 962,565 925,554 776,482 947,516 993,511 987,523 	"/>
	<linearGradient id="SVGID_4_" gradientUnits="userSpaceOnUse" x1="755" y1="401.5" x2="983" y2="401.5">
		<stop  offset="0" style="stop-color:#4D787C"/>
		<stop  offset="0.1439" style="stop-color:#517B7F"/>
		<stop  offset="0.3012" style="stop-color:#5F8589"/>
		<stop  offset="0.465" style="stop-color:#749699"/>
		<stop  offset="0.6332" style="stop-color:#93ADB0"/>
		<stop  offset="0.8048" style="stop-color:#BBCBCD"/>
		<stop  offset="0.9769" style="stop-color:#EAF0F0"/>
		<stop  offset="1" style="stop-color:#F1F5F5"/>
	</linearGradient>
	<polygon class="st4" points="966,418 808,363 798,373 776,363 783,379 768,384 776,391 755,398 983,440 	"/>
	<linearGradient id="SVGID_5_" gradientUnits="userSpaceOnUse" x1="0" y1="499" x2="712" y2="499">
		<stop  offset="0" style="stop-color:#4D787C"/>
		<stop  offset="0.4072" style="stop-color:#4F797D"/>
		<stop  offset="0.5538" style="stop-color:#567F82"/>
		<stop  offset="0.6584" style="stop-color:#61888B"/>
		<stop  offset="0.743" style="stop-color:#729498"/>
		<stop  offset="0.8154" style="stop-color:#88A5A8"/>
		<stop  offset="0.8795" style="stop-color:#A4BABC"/>
		<stop  offset="0.9375" style="stop-color:#C4D3D4"/>
		<stop  offset="0.9891" style="stop-color:#E8EEEF"/>
		<stop  offset="1" style="stop-color:#F1F5F5"/>
	</linearGradient>
	<polygon class="st5" points="712,230 573,460 588,586 497,670 398,766 0,768 	"/>
</g>
<g id="Layer_2">
	<path class="st6" d="M75,20.58c3.28,5.54,5.17,11.99,5.17,18.89c0,20.51-16.63,37.15-37.15,37.15c-0.45,0-0.9-0.02-1.35-0.03
		C46.49,79.39,52.08,81,58.05,81c18,0,32.59-14.59,32.59-32.59C90.64,36.62,84.38,26.3,75,20.58z"/>
</g>
</svg>
